<svg width="48" height="31" viewBox="0 0 217 190" fill="none" xmlns="http://www.w3.org/2000/svg">
    <path d="M107.796 108.715C139.66 108.715 170.332 124.186 189.027 149.938C197.165 161.149 199.583 173.005 204.376 185.513C205.574 188.642 208.944 190.674 212.263 189.66C218.319 187.812 216.806 179.637 216.782 174.785C216.711 160.152 214.252 144.871 210.483 130.738C197.776 83.0822 158 45.4784 107.796 41.5159V12.7163C107.796 9.14336 108.64 4.30101 105.462 1.79099C99.8726 -2.62403 92.3661 5.27404 88.0315 8.36301C72.7739 19.2364 57.5203 30.1176 42.291 41.0305L10.1032 64.0248C6.4387 66.6501 0.0449219 69.6135 0.0449219 74.8331C0.0449219 79.9888 6.47009 82.9766 10.1032 85.5623L42.291 108.551C57.5508 119.426 72.788 130.332 88.0315 141.23C92.4954 144.421 100.34 152.615 105.973 147.442C108.68 144.957 107.796 140.26 107.796 136.95V108.715Z" fill="#0D283B"/>
    </svg>
    