<svg width="17" height="17" viewBox="0 0 68 68" fill="none" xmlns="http://www.w3.org/2000/svg">
    <path d="M6.57798 67.0156C4.39708 66.4425 2.28659 64.7019 1.31404 62.6743C0.325241 60.6128 0.384046 62.3251 0.423088 36.725C0.457104 14.7476 0.468444 13.7548 0.702396 13.063C1.23784 11.4817 1.74101 10.6636 2.88636 9.51199C4.15587 8.2355 5.093 7.67922 6.64083 7.28335C7.59822 7.03844 8.119 7.02407 15.9659 7.02407H24.2771L24.7215 7.46854C25.5149 8.26193 25.4417 9.41028 24.5594 10.0099C24.2472 10.2219 23.5569 10.2457 15.9492 10.3062L7.67835 10.3719L6.89398 10.6879C5.99438 11.0504 4.84366 12.0627 4.41907 12.8656C3.70395 14.2178 3.75055 12.6687 3.7078 36.4925C3.68512 49.5917 3.71914 58.9004 3.7902 59.4233C4.05552 61.3388 5.26186 62.9603 6.91889 63.6291L7.67831 63.9357H32.2283H56.7783L57.5215 63.6352C58.8625 63.0931 59.875 62.0803 60.4161 60.7396C60.7143 60.0004 60.7162 59.9614 60.782 51.6833L60.8481 43.3694L61.3385 42.9201C61.7305 42.5611 61.9372 42.4708 62.3685 42.4708C63.0327 42.4708 63.5866 42.7826 63.8676 43.3149C64.0589 43.677 64.0763 44.5801 64.0388 52.1858C63.998 60.5333 63.9935 60.6657 63.7063 61.5069C62.8443 64.0321 60.8154 66.0612 58.288 66.9258L57.4346 67.2176L32.4908 67.2441C8.17823 67.2705 7.52244 67.263 6.57756 67.0158L6.57798 67.0156ZM19.3364 49.3026C18.8775 49.0229 18.5095 48.4282 18.5095 47.9666C18.5095 47.5958 22.4074 33.4852 22.6576 32.9501C22.7597 32.732 29.6809 25.7222 38.0384 17.3724C49.1901 6.23107 53.4596 2.04677 54.0818 1.64913C55.3449 0.841857 56.4861 0.528167 58.1571 0.52881C60.6727 0.529792 61.8448 1.11919 64.4048 3.67067C65.9411 5.20179 66.3345 5.67553 66.726 6.46564C67.9492 8.93374 67.8561 11.5677 66.4626 13.9164C66.1066 14.5166 62.4289 18.2773 51.0155 29.7126C42.7767 37.9672 35.8204 44.8942 35.5571 45.1058C35.1506 45.4323 33.9707 45.7975 27.7362 47.5252C23.698 48.6442 20.2506 49.5596 20.0753 49.5593C19.9 49.5591 19.5675 49.4437 19.3364 49.3027L19.3364 49.3026ZM27.0785 44.2451C29.3003 43.6301 31.1608 43.1269 31.2129 43.1269C31.2651 43.1269 29.8929 41.7113 28.1638 39.9811C26.4347 38.2509 25.007 36.8482 24.9912 36.864C24.9761 36.8791 24.4538 38.7239 23.8321 40.9617C23.2105 43.1996 22.6685 45.1397 22.6276 45.2733C22.5694 45.4634 22.6049 45.4993 22.7962 45.4396C22.9296 45.3976 24.8568 44.8601 27.0786 44.2451L27.0785 44.2451ZM46.7023 29.3096C53.3635 22.6488 58.8135 17.1402 58.8135 17.0683C58.8135 16.8967 51.1748 9.25588 51.0032 9.25588C50.8316 9.25588 26.6491 33.4362 26.6491 33.6078C26.6491 33.7794 34.2878 41.4202 34.4593 41.4202C34.5319 41.4202 40.0412 35.9704 46.7023 29.3096ZM62.4598 13.53C63.0369 12.9204 63.6388 12.1534 63.7975 11.8258C64.3552 10.6736 64.349 9.15203 63.7824 8.02875C63.4188 7.30875 60.7417 4.64113 60.0134 4.27327C58.8925 3.70714 57.2883 3.70587 56.1821 4.26981C55.9039 4.41192 55.1564 5.02679 54.5209 5.63662L53.3657 6.74534L57.3034 10.6917C59.4691 12.8622 61.2793 14.638 61.326 14.638C61.3729 14.638 61.8832 14.1393 62.4603 13.5296L62.4598 13.53Z" fill="black"/>
    </svg>
    