<svg width="16" height="17" viewBox="0 0 72 88" fill="none" xmlns="http://www.w3.org/2000/svg">
    <path d="M14.2829 86.9326C11.9382 86.1745 10.2919 84.7474 9.25375 82.5733L8.62388 81.2542L8.58363 53.0437C8.54337 25.1212 8.54337 24.8276 8.87789 24.2827C9.8575 22.6813 12.3687 22.6265 13.3895 24.184C13.6793 24.6261 13.6984 26.0128 13.7789 52.2759C13.8628 79.7646 13.8649 79.9056 14.2104 80.4933C14.4011 80.8184 14.8116 81.2553 15.1222 81.4646L15.6871 81.8454H35.9082H56.1292L56.7032 81.4641C57.0191 81.2543 57.4482 80.7441 57.6573 80.3304L58.0376 79.5779L58.0382 52.2056C58.0389 25.1903 58.0431 24.8261 58.3747 24.2827C59.4188 22.5703 61.972 22.6413 63.012 24.4116C63.358 25.001 63.3591 25.0643 63.3591 52.6216C63.3591 79.0737 63.3489 80.2892 63.0432 81.386C62.2993 84.0843 60.0544 86.2785 57.2775 87.0213C56.5935 87.2042 52.5148 87.2461 35.824 87.2401C16.5444 87.2363 15.1552 87.2136 14.286 86.9328L14.2829 86.9326ZM23.0671 75.2366C22.8347 75.144 22.4666 74.9016 22.2487 74.6982C21.3265 73.8372 21.3777 75.3362 21.3777 49.2345C21.3777 22.2873 21.2862 24.323 22.5391 23.4715C22.9868 23.1672 23.3719 23.0595 24.0103 23.0595C25.112 23.0595 25.8859 23.5504 26.4056 24.5793L26.7878 25.3363L26.7426 49.41L26.6973 73.4837L26.2914 74.1371C25.6416 75.1824 24.1795 75.6807 23.0657 75.2366L23.0671 75.2366ZM34.7532 75.1519C34.4449 74.9943 33.9886 74.5989 33.7397 74.2725L33.287 73.679L33.2367 49.5941C33.2015 33.5652 33.2416 25.3096 33.3589 24.9129C33.4534 24.5849 33.8035 24.0531 34.1364 23.7305C34.7045 23.1798 34.8105 23.1441 35.8723 23.1441C37.2089 23.1441 37.7435 23.4491 38.2694 24.5101C38.6084 25.1948 38.6109 25.3972 38.5676 49.4564C38.5223 73.6574 38.5224 73.7135 38.1753 74.1789C37.3264 75.3158 35.8808 75.7268 34.7531 75.1519H34.7532ZM46.594 75.0823C46.1961 74.8801 45.7101 74.446 45.496 74.1017L45.1117 73.4838V49.243C45.1117 25.0938 45.1129 25 45.4587 24.4116C46.4987 22.6412 49.0519 22.5704 50.096 24.2827C50.4269 24.8253 50.4315 25.1837 50.4325 49.1757L50.4331 73.5182L50.0529 74.0766C49.1845 75.3524 47.8748 75.7333 46.594 75.0822L46.594 75.0823ZM1.82311 17.3174C0.221992 16.3411 0.167001 13.8279 1.7245 12.8069C2.14903 12.5287 2.82192 12.4947 9.45564 12.4175L16.7219 12.3333L16.8547 11.5731C17.5372 7.65732 18.4419 6.06172 20.9114 4.41857C23.2669 2.85128 26.0766 1.79713 29.5711 1.16962C31.5876 0.807538 37.5932 0.660054 40.1308 0.910674C45.2467 1.41539 49.8694 3.16237 52.3141 5.5149C53.5598 6.71365 54.365 8.35181 54.7519 10.4753C54.9043 11.3115 55.0567 12.0907 55.0909 12.2068C55.1412 12.3712 56.6936 12.4181 62.1289 12.4181C68.6011 12.4181 69.1472 12.437 69.6894 12.7314C70.3693 13.0961 71.0423 14.2425 71.0423 15.0363C71.0423 15.83 70.3693 16.9765 69.6894 17.3412C69.1258 17.6436 67.9158 17.6546 35.7396 17.6542C2.74421 17.6535 2.36812 17.6511 1.82366 17.3178L1.82311 17.3174ZM49.5883 12.026C49.5883 10.5808 48.6688 9.23259 47.0544 8.31062C46.1449 7.79123 43.7388 6.97391 41.9866 6.58931C40.2814 6.21514 34.0497 6.05286 31.7299 6.32287C28.1787 6.73586 24.4472 8.13417 23.1933 9.52217C22.6506 10.1228 22.2224 11.2919 22.2224 12.1728C22.2224 12.3853 24.0616 12.4178 35.9054 12.4178H49.5883V12.026Z" fill="black"/>
    </svg>
    