<svg width="1001" height="738" viewBox="0 0 1001 738" fill="none" xmlns="http://www.w3.org/2000/svg">
<path d="M704 701H0V703H704V701Z" fill="#E6E6E6"/>
<path d="M218.521 120H212.138L185.011 220.041C185.011 220.041 184.479 286.554 190.862 319C190.862 319 201.5 304.94 208.947 304.94C216.393 304.94 223.308 234.101 223.308 234.101C223.308 234.101 252.563 132.978 218.521 120Z" fill="#E6E6E6"/>
<path d="M360.135 311C360.135 311 342.586 359.58 359.038 362.818C375.489 366.057 384.263 325.034 379.876 319.636C375.489 314.239 360.135 311 360.135 311Z" fill="#D69797"/>
<path d="M189 300.673C189 300.673 193.734 352.743 209.377 348.785C225.02 344.827 215.765 303.405 209.727 300.291C203.689 297.178 189 300.673 189 300.673Z" fill="#D69797"/>
<path d="M230.183 600.675C230.183 600.675 237.716 637.225 224.803 646.9C211.889 656.575 229.107 677 229.107 677L270 634C270 634 252.782 607.125 253.858 591L230.183 600.675Z" fill="#D69797"/>
<path d="M294.4 634L290.08 663.348L289 684L312.76 681.826L316 639.435L294.4 634Z" fill="#D69797"/>
<path d="M203.315 306C203.315 306 189.981 310.889 191.062 324.913C192.144 338.938 195.387 383.169 195.387 383.169C195.387 383.169 185.656 478.105 195.387 510.47C205.118 542.834 223.497 607.563 223.497 607.563C223.497 607.563 251.608 612.957 258.095 592.46C258.095 592.46 257.014 522.337 245.121 507.233C233.228 492.13 241.877 487.815 242.959 485.657C244.04 483.499 247.283 480.263 247.283 477.026C247.283 473.79 248.364 461.923 248.364 457.608C248.364 453.292 247.283 454.371 249.446 447.898C251.608 441.425 253.77 439.268 253.77 438.189C253.77 437.11 272.15 379.933 272.15 379.933L295.936 512.627C295.936 512.627 290.53 643.164 292.692 643.164C294.855 643.164 318.641 651.795 327.29 643.164C327.29 643.164 348.913 530.967 344.589 524.494C340.264 518.021 339.183 516.943 340.264 510.47C341.345 503.997 343.508 500.76 341.345 497.524C339.183 494.288 335.939 483.499 339.183 480.263C342.426 477.026 343.508 461.923 343.508 461.923C343.508 461.923 361.887 356.199 349.995 341.096C338.102 325.992 203.315 306 203.315 306Z" fill="#2F2E41"/>
<path d="M240.06 648.36C240.06 648.36 227.052 632.281 222.716 639.785C218.38 647.288 211.876 659.079 211.876 659.079C211.876 659.079 163.097 700.885 190.197 701.957C217.296 703.029 234.64 683.734 234.64 683.734C234.64 683.734 238.976 662.295 251.984 662.295L254.152 667.655L278 652.648C278 652.648 274.642 624.186 264.939 625.018L240.06 648.36Z" fill="#2F2E41"/>
<path d="M285.423 680.781C285.423 680.781 313.165 670.024 316.366 680.781C319.567 691.537 319.567 696.915 319.567 696.915C319.567 696.915 343.041 735.638 319.567 737.79C296.093 739.941 285.423 724.882 285.423 724.882C285.423 724.882 288.624 706.596 285.423 704.445C282.222 702.293 285.423 680.781 285.423 680.781Z" fill="#2F2E41"/>
<path d="M304.5 86C325.211 86 342 68.9868 342 48C342 27.0132 325.211 10 304.5 10C283.789 10 267 27.0132 267 48C267 68.9868 283.789 86 304.5 86Z" fill="#D69797"/>
<path d="M276.537 57L269 99.0588L321.756 112C321.756 112 309.375 81.2647 322.833 67.7843C326.237 64.374 276.537 57 276.537 57Z" fill="#CE8F8F"/>
<path d="M272.218 81C270.952 81.2398 269.779 81.8341 268.834 82.7146C267.888 83.5951 267.209 84.7259 266.875 85.9772C265.939 89.0758 264.488 91.9928 262.585 94.605C262.585 94.605 212.177 118.331 212.177 121.567C212.177 124.802 232.555 193.825 232.555 193.825C232.555 193.825 233.627 236.964 225.047 246.67C216.467 256.376 207.887 291.966 210.032 295.202C212.177 298.437 195.017 305.986 201.452 311.379C207.887 316.771 297.978 368.538 351.603 344.811C351.603 344.811 352.675 335.105 351.603 328.634C350.53 322.163 358.038 300.594 355.893 293.045C353.748 285.495 355.893 207.845 355.893 207.845L366.946 115.898C367.157 114.151 366.749 112.386 365.795 110.911C364.84 109.437 363.399 108.348 361.725 107.836C349.364 104.058 320.698 88.5907 316.746 91.9088C311.63 96.205 279.707 93.2785 272.218 81Z" fill="#E6E6E6"/>
<path d="M356.939 107.563L357.008 107.536C358.55 106.919 360.254 106.832 361.851 107.288C363.448 107.744 364.848 108.717 365.828 110.053C372.51 119.162 386.571 139.634 388.207 152.68C390.364 169.868 396.833 216.059 395.755 222.504C394.677 228.949 393.599 230.024 395.755 233.246C397.911 236.469 396.833 235.395 395.755 238.617C394.677 241.84 381.738 331 381.738 331C381.738 331 373.112 311.664 356.939 318.109C356.939 318.109 359.095 300.922 356.939 295.551C354.782 290.18 352.626 286.957 354.782 282.66C356.939 278.363 354.782 236.469 353.704 232.172C352.626 227.875 353.704 205.317 353.704 205.317L344 161.274L356.939 107.563Z" fill="#E6E6E6"/>
<path d="M297.617 54.6709L298.896 45.7608C299.194 43.6839 300.41 40.9533 302.431 41.5181C304.15 41.9985 307.896 43.4696 308.523 43.0256C310.872 41.3625 314.425 44.2705 316.895 42.7932C317.93 42.1742 318.605 40.8481 319.807 40.7596C320.614 40.8111 321.374 41.1554 321.945 41.7278C323.548 43.1214 325.437 44.1472 327.479 44.7331C328.504 45.0119 329.584 45.0118 330.609 44.7327C331.633 44.4536 332.564 43.9056 333.306 43.1457C333.567 42.7408 333.92 42.4027 334.336 42.1584C334.824 42.0179 335.344 42.0418 335.817 42.2265L342.127 43.9439C343.055 40.5803 343.246 37.0562 342.686 33.6122C342.126 30.1682 340.829 26.8857 338.883 23.989C336.324 20.5157 333.22 17.4776 329.693 14.9917C325.785 12.0201 321.752 9.22499 317.595 6.6065C313.044 3.73286 308.218 1.02212 302.896 0.214317C297.575 -0.593404 291.617 0.851704 288.27 5.06499C286.696 3.92602 285.512 2.32807 284.883 0.490293C284.507 0.831616 284.211 1.25112 284.016 1.7192C283.821 2.18727 283.731 2.6925 283.752 3.19923C283.773 3.70596 283.906 4.20185 284.14 4.65187C284.374 5.10188 284.704 5.49506 285.106 5.80366L279.77 2.39712C278.269 3.97168 281.201 6.82688 279.922 8.58633C279.536 9.02148 279.04 9.34525 278.486 9.524C275.588 10.653 272.932 12.3238 270.661 14.4471C267.594 17.5216 265.928 21.6949 264.498 25.795C261.318 34.9145 259.007 45.373 263.525 53.9095C264.037 54.8773 270.799 70.8509 271.699 71.4738C274.744 73.5794 272.762 68.4836 274.944 71.4738C276.655 73.8186 276.335 64.8441 278.878 66.814C279.875 67.5271 281.057 67.9359 282.282 67.9909C283.506 68.046 284.72 67.7449 285.777 67.1242C286.832 66.3933 286.492 62.335 285.923 58.608C285.814 57.8981 285.881 57.1724 286.118 56.4945C286.355 55.8165 286.755 55.207 287.283 54.7194C287.81 54.2319 288.449 53.8811 289.144 53.6978C289.839 53.5145 290.568 53.5044 291.267 53.6683C294.434 54.4128 297.563 55.0492 297.617 54.6709Z" fill="#2F2E41"/>
<path opacity="0.1" d="M349.18 140L359 248C359 248 338.251 157.42 349.18 140Z" fill="black"/>
<path d="M173 483C157.5 505.473 153.405 633.374 152.493 674.372C152.469 675.296 152.446 676.172 152.434 677H113.197C112.718 676.124 112.273 675.26 111.852 674.372C88.5956 627.291 101.499 570.839 102.177 567.984C100.411 576.958 108.401 602.971 117.432 628.167C122.942 550.694 170.052 486.911 173 483Z" fill="#E6E6E6"/>
<path d="M756.396 229.989C770.946 229.989 782.742 218.173 782.742 203.597C782.742 189.02 770.946 177.204 756.396 177.204C741.845 177.204 730.05 189.02 730.05 203.597C730.05 218.173 741.845 229.989 756.396 229.989Z" fill="#939393"/>
<path d="M872.223 243.47H753.666C743.185 243.47 733.133 239.299 725.721 231.875C718.31 224.451 714.146 214.381 714.146 203.881C714.146 193.382 718.31 183.312 725.721 175.888C733.133 168.463 743.185 164.292 753.666 164.292H872.223C882.704 164.292 892.756 168.463 900.167 175.888C907.579 183.312 911.742 193.382 911.742 203.881C911.742 214.381 907.579 224.451 900.167 231.875C892.756 239.299 882.704 243.47 872.223 243.47ZM753.666 169.571C744.582 169.571 735.87 173.186 729.447 179.62C723.024 186.055 719.416 194.782 719.416 203.881C719.416 212.981 723.024 221.708 729.447 228.142C735.87 234.577 744.582 238.192 753.666 238.192H872.223C881.307 238.192 890.018 234.577 896.442 228.142C902.865 221.708 906.473 212.981 906.473 203.881C906.473 194.782 902.865 186.055 896.442 179.62C890.018 173.186 881.307 169.571 872.223 169.571H753.666Z" fill="#939393"/>
<path d="M688.568 64V52.8H690.264L694.344 59.44L693.528 59.424L697.656 52.8H699.256V64H697.528V59.408C697.528 58.448 697.549 57.584 697.592 56.816C697.645 56.048 697.731 55.2853 697.848 54.528L698.072 55.12L694.408 60.784H693.352L689.8 55.184L689.976 54.528C690.093 55.2427 690.173 55.9787 690.216 56.736C690.269 57.4827 690.296 58.3733 690.296 59.408V64H688.568ZM705.756 64.16C704.935 64.16 704.199 63.9733 703.548 63.6C702.908 63.216 702.401 62.6987 702.028 62.048C701.655 61.3867 701.468 60.6347 701.468 59.792C701.468 58.9493 701.655 58.2027 702.028 57.552C702.401 56.8907 702.908 56.3733 703.548 56C704.199 55.616 704.935 55.424 705.756 55.424C706.567 55.424 707.292 55.616 707.932 56C708.583 56.3733 709.095 56.8907 709.468 57.552C709.841 58.2027 710.028 58.9493 710.028 59.792C710.028 60.6347 709.841 61.3867 709.468 62.048C709.095 62.6987 708.583 63.216 707.932 63.6C707.292 63.9733 706.567 64.16 705.756 64.16ZM705.756 62.656C706.257 62.656 706.705 62.5333 707.1 62.288C707.495 62.032 707.804 61.6907 708.028 61.264C708.252 60.8267 708.359 60.336 708.348 59.792C708.359 59.2373 708.252 58.7467 708.028 58.32C707.804 57.8827 707.495 57.5413 707.1 57.296C706.705 57.0507 706.257 56.928 705.756 56.928C705.255 56.928 704.801 57.056 704.396 57.312C704.001 57.5573 703.692 57.8987 703.468 58.336C703.244 58.7627 703.137 59.248 703.148 59.792C703.137 60.336 703.244 60.8267 703.468 61.264C703.692 61.6907 704.001 62.032 704.396 62.288C704.801 62.5333 705.255 62.656 705.756 62.656ZM715.328 64.16C714.56 64.16 713.872 63.9733 713.264 63.6C712.667 63.216 712.192 62.6987 711.84 62.048C711.488 61.3867 711.312 60.6347 711.312 59.792C711.312 58.9493 711.483 58.2027 711.824 57.552C712.176 56.8907 712.651 56.3733 713.248 56C713.845 55.616 714.523 55.424 715.28 55.424C715.696 55.424 716.096 55.4933 716.48 55.632C716.875 55.76 717.227 55.9413 717.536 56.176C717.845 56.4 718.085 56.6507 718.256 56.928C718.437 57.1947 718.528 57.4667 718.528 57.744L718.048 57.776V52.16H719.696V64H718.048V62H718.368C718.368 62.256 718.283 62.512 718.112 62.768C717.941 63.0133 717.712 63.2427 717.424 63.456C717.147 63.6693 716.821 63.84 716.448 63.968C716.085 64.096 715.712 64.16 715.328 64.16ZM715.552 62.736C716.053 62.736 716.496 62.608 716.88 62.352C717.264 62.096 717.563 61.7493 717.776 61.312C718 60.864 718.112 60.3573 718.112 59.792C718.112 59.2267 718 58.7253 717.776 58.288C717.563 57.84 717.264 57.488 716.88 57.232C716.496 56.976 716.053 56.848 715.552 56.848C715.051 56.848 714.608 56.976 714.224 57.232C713.84 57.488 713.536 57.84 713.312 58.288C713.099 58.7253 712.992 59.2267 712.992 59.792C712.992 60.3573 713.099 60.864 713.312 61.312C713.536 61.7493 713.84 62.096 714.224 62.352C714.608 62.608 715.051 62.736 715.552 62.736ZM725.741 64.16C724.919 64.16 724.183 63.9733 723.533 63.6C722.893 63.216 722.386 62.6987 722.013 62.048C721.639 61.3867 721.453 60.6347 721.453 59.792C721.453 58.9493 721.639 58.2027 722.013 57.552C722.386 56.8907 722.893 56.3733 723.533 56C724.183 55.616 724.919 55.424 725.741 55.424C726.551 55.424 727.277 55.616 727.917 56C728.567 56.3733 729.079 56.8907 729.453 57.552C729.826 58.2027 730.013 58.9493 730.013 59.792C730.013 60.6347 729.826 61.3867 729.453 62.048C729.079 62.6987 728.567 63.216 727.917 63.6C727.277 63.9733 726.551 64.16 725.741 64.16ZM725.741 62.656C726.242 62.656 726.69 62.5333 727.085 62.288C727.479 62.032 727.789 61.6907 728.013 61.264C728.237 60.8267 728.343 60.336 728.333 59.792C728.343 59.2373 728.237 58.7467 728.013 58.32C727.789 57.8827 727.479 57.5413 727.085 57.296C726.69 57.0507 726.242 56.928 725.741 56.928C725.239 56.928 724.786 57.056 724.381 57.312C723.986 57.5573 723.677 57.8987 723.453 58.336C723.229 58.7627 723.122 59.248 723.133 59.792C723.122 60.336 723.229 60.8267 723.453 61.264C723.677 61.6907 723.986 62.032 724.381 62.288C724.786 62.5333 725.239 62.656 725.741 62.656ZM739.797 64.16C739.029 64.16 738.341 63.9733 737.733 63.6C737.135 63.216 736.661 62.6987 736.309 62.048C735.957 61.3867 735.781 60.6347 735.781 59.792C735.781 58.9493 735.951 58.2027 736.293 57.552C736.645 56.8907 737.119 56.3733 737.717 56C738.314 55.616 738.991 55.424 739.749 55.424C740.165 55.424 740.565 55.4933 740.949 55.632C741.343 55.76 741.695 55.9413 742.005 56.176C742.314 56.4 742.554 56.6507 742.725 56.928C742.906 57.1947 742.997 57.4667 742.997 57.744L742.517 57.776V52.16H744.165V64H742.517V62H742.837C742.837 62.256 742.751 62.512 742.581 62.768C742.41 63.0133 742.181 63.2427 741.893 63.456C741.615 63.6693 741.29 63.84 740.917 63.968C740.554 64.096 740.181 64.16 739.797 64.16ZM740.021 62.736C740.522 62.736 740.965 62.608 741.349 62.352C741.733 62.096 742.031 61.7493 742.245 61.312C742.469 60.864 742.581 60.3573 742.581 59.792C742.581 59.2267 742.469 58.7253 742.245 58.288C742.031 57.84 741.733 57.488 741.349 57.232C740.965 56.976 740.522 56.848 740.021 56.848C739.519 56.848 739.077 56.976 738.693 57.232C738.309 57.488 738.005 57.84 737.781 58.288C737.567 58.7253 737.461 59.2267 737.461 59.792C737.461 60.3573 737.567 60.864 737.781 61.312C738.005 61.7493 738.309 62.096 738.693 62.352C739.077 62.608 739.519 62.736 740.021 62.736ZM751.409 64V58.528C751.409 58.0587 751.239 57.68 750.897 57.392C750.567 57.0933 750.145 56.944 749.633 56.944C749.164 56.944 748.737 57.04 748.353 57.232C747.98 57.424 747.639 57.7173 747.329 58.112L746.257 57.04C746.759 56.496 747.297 56.0907 747.873 55.824C748.46 55.5573 749.089 55.424 749.761 55.424C750.401 55.424 750.956 55.5307 751.425 55.744C751.895 55.9573 752.257 56.272 752.513 56.688C752.769 57.0933 752.897 57.5893 752.897 58.176V64H751.409ZM748.897 64.16C748.353 64.16 747.868 64.0533 747.441 63.84C747.015 63.6267 746.673 63.3333 746.417 62.96C746.172 62.576 746.049 62.128 746.049 61.616C746.049 61.168 746.129 60.7733 746.289 60.432C746.449 60.0907 746.684 59.808 746.993 59.584C747.313 59.36 747.708 59.1893 748.177 59.072C748.657 58.9547 749.207 58.896 749.825 58.896H752.161L752.017 60.208H749.617C749.297 60.208 749.009 60.24 748.753 60.304C748.508 60.3573 748.295 60.448 748.113 60.576C747.943 60.6933 747.815 60.8373 747.729 61.008C747.644 61.168 747.601 61.36 747.601 61.584C747.601 61.8187 747.66 62.0267 747.777 62.208C747.895 62.3787 748.055 62.512 748.257 62.608C748.46 62.704 748.695 62.752 748.961 62.752C749.345 62.752 749.708 62.688 750.049 62.56C750.401 62.4213 750.711 62.2347 750.977 62C751.255 61.7653 751.468 61.504 751.617 61.216L752.001 62.288C751.777 62.6613 751.5 62.9867 751.169 63.264C750.839 63.5413 750.481 63.76 750.097 63.92C749.713 64.08 749.313 64.16 748.897 64.16ZM754.98 64V55.6H756.644V58.24L756.484 57.6C756.601 57.1947 756.799 56.8267 757.076 56.496C757.364 56.1653 757.689 55.904 758.052 55.712C758.425 55.52 758.809 55.424 759.204 55.424C759.385 55.424 759.556 55.44 759.716 55.472C759.887 55.504 760.02 55.5413 760.116 55.584L759.684 57.376C759.556 57.3227 759.412 57.28 759.252 57.248C759.103 57.2053 758.953 57.184 758.804 57.184C758.516 57.184 758.239 57.2427 757.972 57.36C757.716 57.4667 757.487 57.6213 757.284 57.824C757.092 58.016 756.937 58.2453 756.82 58.512C756.703 58.768 756.644 59.0507 756.644 59.36V64H754.98ZM762.937 61.376L762.857 59.584L766.873 55.6H769.097L762.937 61.376ZM761.433 64V52.16H763.081V64H761.433ZM767.097 64L763.929 60.304L765.097 59.232L769.209 64H767.097Z" fill="#20577D"/>
<path d="M756.256 376.119C770.806 376.119 782.602 364.303 782.602 349.727C782.602 335.15 770.806 323.334 756.256 323.334C741.705 323.334 729.91 335.15 729.91 349.727C729.91 364.303 741.705 376.119 756.256 376.119Z" fill="#939393"/>
<path d="M872.223 388.76H753.666C743.185 388.76 733.133 384.589 725.721 377.165C718.31 369.74 714.146 359.671 714.146 349.171C714.146 338.671 718.31 328.602 725.721 321.177C733.133 313.753 743.185 309.582 753.666 309.582H872.223C882.704 309.582 892.756 313.753 900.168 321.177C907.579 328.602 911.742 338.671 911.742 349.171C911.742 359.671 907.579 369.74 900.168 377.165C892.756 384.589 882.704 388.76 872.223 388.76ZM753.666 314.861C744.582 314.861 735.87 318.475 729.447 324.91C723.024 331.344 719.416 340.071 719.416 349.171C719.416 358.271 723.024 366.998 729.447 373.432C735.87 379.867 744.582 383.481 753.666 383.481H872.223C881.307 383.481 890.018 379.867 896.442 373.432C902.865 366.998 906.473 358.271 906.473 349.171C906.473 340.071 902.865 331.344 896.442 324.91C890.018 318.475 881.307 314.861 872.223 314.861H753.666Z" fill="#939393"/>
<path d="M756.256 519.546C770.806 519.546 782.602 507.73 782.602 493.154C782.602 478.577 770.806 466.761 756.256 466.761C741.705 466.761 729.91 478.577 729.91 493.154C729.91 507.73 741.705 519.546 756.256 519.546Z" fill="#939393"/>
<path d="M872.223 534.05H753.666C743.185 534.05 733.133 529.879 725.721 522.454C718.31 515.03 714.146 504.96 714.146 494.461C714.146 483.961 718.31 473.892 725.721 466.467C733.133 459.043 743.185 454.872 753.666 454.872H872.223C882.704 454.872 892.756 459.043 900.167 466.467C907.579 473.892 911.742 483.961 911.742 494.461C911.742 504.96 907.579 515.03 900.167 522.454C892.756 529.879 882.704 534.05 872.223 534.05ZM753.666 460.15C744.582 460.15 735.87 463.765 729.447 470.2C723.024 476.634 719.416 485.361 719.416 494.461C719.416 503.56 723.024 512.287 729.447 518.722C735.87 525.156 744.582 528.771 753.666 528.771H872.223C876.721 528.771 881.175 527.884 885.33 526.159C889.485 524.435 893.261 521.908 896.442 518.722C899.622 515.536 902.145 511.754 903.866 507.591C905.587 503.428 906.473 498.967 906.473 494.461C906.473 489.955 905.587 485.493 903.866 481.331C902.145 477.168 899.622 473.386 896.442 470.2C893.261 467.014 889.485 464.486 885.33 462.762C881.175 461.038 876.721 460.15 872.223 460.15H753.666Z" fill="#939393"/>
<path d="M995.185 615H628.815C627.274 614.998 625.795 614.384 624.705 613.292C623.615 612.2 623.002 610.72 623 609.176V26.8238C623.002 25.2798 623.615 23.7995 624.705 22.7078C625.795 21.616 627.274 21.0018 628.815 21H995.185C996.726 21.0018 998.205 21.616 999.295 22.7078C1000.38 23.7995 1001 25.2798 1001 26.8238V609.176C1001 610.72 1000.38 612.2 999.295 613.292C998.205 614.384 996.726 614.998 995.185 615ZM628.815 23.3295C627.89 23.3305 627.003 23.699 626.349 24.3541C625.695 25.0092 625.327 25.8974 625.326 26.8238V609.176C625.327 610.103 625.695 610.991 626.349 611.646C627.003 612.301 627.89 612.669 628.815 612.67H995.185C996.11 612.669 996.997 612.301 997.651 611.646C998.305 610.991 998.673 610.103 998.674 609.176V26.8238C998.673 25.8974 998.305 25.0092 997.651 24.3541C996.997 23.699 996.11 23.3305 995.185 23.3295H628.815Z" fill="#9A9A9A"/>
</svg>
