<svg width="493" height="104" viewBox="0 0 493 104" fill="none" xmlns="http://www.w3.org/2000/svg">
    <g clip-path="url(#clip0_936_1140)">
    <path d="M48.933 33.8822C47.3011 33.8822 46.3949 34.1409 46.6399 34.5366C46.8626 34.8964 47.8945 35.1905 48.933 35.1905C49.9715 35.1905 51.0034 34.8964 51.2261 34.5366C51.471 34.1409 50.5648 33.8822 48.933 33.8822ZM46.0845 37.9125C45.8512 37.9661 45.5268 38.3229 44.9596 39.017C43.6607 40.6071 41.0708 48.1255 41.0708 50.3065C41.0708 51.9021 43.4263 51.9724 44.2339 50.401C45.3645 48.2007 47.1043 39.7619 46.6615 38.626C46.4597 38.1085 46.3178 37.8589 46.0845 37.9125V37.9125ZM36.9992 43.6685C36.6362 43.6601 36.0264 43.8943 35.1752 44.3491C33.7511 45.1101 22.0711 60.307 22.0711 61.3988C22.0711 61.7368 22.7954 62.0136 23.6809 62.0136C25.4771 62.0136 26.0773 61.3291 33.4358 50.8918C36.9528 45.9034 38.0879 43.6938 36.9992 43.6685V43.6685ZM69.0297 44.6716C68.6823 44.6349 68.5881 45.2677 68.5881 46.9343C68.5881 49.195 68.7904 49.641 69.7346 49.4624C70.5111 49.3155 70.9514 48.5084 71.0987 46.9622C71.2183 45.7063 71.0987 44.8962 70.8316 45.1625C70.565 45.4287 69.9512 45.3186 69.4676 44.9179C69.2896 44.7704 69.1455 44.6838 69.0297 44.6716V44.6716ZM54.1746 50.3115C52.6902 50.3115 51.2056 50.3433 50.0795 50.4072C47.8274 50.5349 49.6702 50.6397 54.1746 50.6397C58.6788 50.6397 60.5213 50.5349 58.2691 50.4072C57.143 50.3433 55.6589 50.3115 54.1746 50.3115ZM75.1399 52.2002V59.3965V66.5931H71.9257H68.711L68.2606 69.8634C68.0129 71.6621 67.6119 73.2562 67.3695 73.4058C67.1271 73.5554 62.3637 73.9021 56.7843 74.1767C50.2647 74.4974 47.2254 74.8589 48.278 75.188C50.2436 75.8024 68.445 75.481 70.03 74.804C70.8312 74.4618 71.1994 73.3793 71.3403 70.9513L71.5365 67.574L74.9762 67.3765L78.4159 67.1788V59.6893V52.2002H76.7777H75.1399ZM58.5674 54.1592C57.7387 54.139 56.5042 54.5471 55.8119 55.2384C51.8047 59.2397 38.4503 78.1642 38.4503 79.8415C38.4503 82.7883 41.2247 79.9424 50.0608 67.9314C55.206 60.9374 59.4157 54.9782 59.4157 54.6888C59.4157 54.3373 59.0646 54.1713 58.5674 54.1592V54.1592ZM35.6306 60.0763C33.1552 60.0763 30.5826 60.2857 29.9332 60.7048C29.2597 61.1394 30.8696 61.3424 35.0493 61.3492C38.9509 61.3557 41.0024 61.1233 40.7434 60.7048C40.484 60.2857 38.1059 60.0763 35.6306 60.0763ZM39.8076 64.6578C38.6013 64.652 37.7992 65.9506 36.4696 69.5905L34.8161 74.1163L27.6247 74.304C22.7741 74.4303 20.7528 74.693 21.4157 75.1115C21.9562 75.4526 25.9475 75.7362 30.2853 75.7418L38.1724 75.7516L39.9031 70.4798C41.3147 66.18 41.4651 65.1433 40.7188 64.8574C40.386 64.7299 40.086 64.6591 39.8076 64.6577V64.6578Z" fill="white"/>
    <path d="M49.4359 35.0926C47.804 35.0926 46.8979 35.3513 47.1428 35.747C47.3655 36.1068 48.3974 36.401 49.4359 36.401C50.4744 36.401 51.5063 36.1068 51.729 35.747C51.9739 35.3513 51.0677 35.0926 49.4359 35.0926ZM46.5874 39.123C46.3542 39.1766 46.0297 39.5333 45.4625 40.2275C44.1636 41.8175 41.5738 49.336 41.5738 51.5169C41.5738 53.1126 43.9292 53.1828 44.7368 51.6113C45.8674 49.4111 47.6073 40.9723 47.1645 39.8364C46.9627 39.3189 46.8207 39.0694 46.5874 39.123V39.123ZM37.5021 44.8789C37.1391 44.8705 36.5293 45.1046 35.6781 45.5595C34.2541 46.3205 22.574 61.5174 22.574 62.6091C22.574 62.9472 23.2984 63.224 24.1838 63.224C25.98 63.224 26.5802 62.5394 33.9387 52.1022C37.4557 47.1138 38.5908 44.9042 37.5021 44.8789V44.8789ZM69.5327 45.882C69.1852 45.8453 69.091 46.4781 69.091 48.1447C69.091 50.4054 69.2933 50.8514 70.2376 50.6728C71.014 50.5259 71.4543 49.7188 71.6016 48.1726C71.7212 46.9167 71.6016 46.1066 71.3345 46.3729C71.0679 46.6391 70.4541 46.529 69.9705 46.1283C69.7925 45.9808 69.6484 45.8942 69.5327 45.882V45.882ZM54.6775 51.5219C53.1931 51.5219 51.7085 51.5537 50.5825 51.6176C48.3303 51.7453 50.1731 51.8501 54.6775 51.8501C59.1817 51.8501 61.0242 51.7453 58.772 51.6176C57.6459 51.5537 56.1618 51.5219 54.6775 51.5219ZM75.6428 53.4106V60.6069V67.8035H72.4286H69.2139L68.7635 71.0738C68.5158 72.8725 68.1148 74.4666 67.8724 74.6162C67.63 74.7658 62.8666 75.1125 57.2872 75.3871C50.7676 75.7079 47.7283 76.0694 48.781 76.3984C50.7465 77.0128 68.9479 76.6914 70.533 76.0144C71.3342 75.6722 71.7023 74.5898 71.8432 72.1617L72.0395 68.7845L75.4791 68.5869L78.9188 68.3893V60.8998V53.4106H77.2806H75.6428ZM59.0703 55.3697C58.2417 55.3495 57.0071 55.7575 56.3148 56.4488C52.3077 60.45 38.9532 79.3746 38.9532 81.052C38.9532 83.9988 41.7276 81.1528 50.5637 69.1418C55.709 62.1478 59.9186 56.1886 59.9186 55.8992C59.9186 55.5477 59.5676 55.3817 59.0703 55.3697V55.3697ZM36.1335 61.2866C33.6581 61.2866 31.0856 61.4961 30.4361 61.9152C29.7626 62.3499 31.3725 62.5528 35.5522 62.5596C39.4538 62.5661 41.5053 62.3337 41.2463 61.9152C40.9869 61.4961 38.6088 61.2866 36.1335 61.2866V61.2866ZM40.3106 65.8682C39.1042 65.8624 38.3022 67.161 36.9726 70.8009L35.319 75.3268L28.1276 75.5144C23.277 75.6407 21.2558 75.9035 21.9186 76.3219C22.4592 76.6631 26.4504 76.9466 30.7882 76.9521L38.6753 76.962L40.406 71.6902C41.8176 67.3904 41.968 66.3537 41.2217 66.0678C40.8889 65.9402 40.5889 65.8695 40.3106 65.8681V65.8682Z" fill="white"/>
    <path d="M54.3999 7.43837V7.44412C54.4056 7.44412 54.407 7.43837 54.4104 7.43837C54.4046 7.43815 54.4033 7.43832 54.3999 7.43837ZM29.1895 10.9584C18.3581 15.6987 8.79418 24.4343 4.06629 34.3143C0.663179 41.4256 0.0161851 44.7919 0.000315028 55.4888C-0.0163181 66.6885 0.613907 69.7011 4.70775 78.0234C6.97406 82.6305 8.23343 84.3292 12.6711 88.7597C20.6011 96.6769 28.4247 101.179 37.6371 103.123C42.9867 104.253 53.5776 104.299 58.7374 103.215C77.133 99.3509 90.7725 86.5901 95.9658 68.3873C97.037 64.6325 97.2497 62.467 97.2294 55.4888C97.2074 48.0865 97.022 46.5036 95.6512 42.0074C92.9351 33.0985 89.1844 26.9154 82.7395 20.7256C78.6916 16.8379 74.5683 13.9693 69.8209 11.765C68.9122 13.6284 68.1171 15.5528 67.4168 17.5285C67.2442 18.0157 67.0226 18.4224 66.7743 18.7543C75.9793 24.1841 83.3741 33.5606 88.0997 45.0777C89.6867 50.9139 89.5533 61.4856 87.8225 67.0317C83.1925 81.8685 72.5166 92.8606 59.4546 96.2403C55.7725 97.1932 46.4924 97.8274 43.4294 97.3362C29.7509 95.142 17.1474 86.0036 11.5726 74.2368C6.36317 63.241 6.47472 47.7277 11.8407 36.9283C16.0242 28.5089 22.9903 21.6517 31.313 17.593C30.5841 15.4118 29.8339 13.1583 29.1895 10.9584V10.9584Z" fill="url(#paint0_linear_936_1140)"/>
    <path d="M54.1741 11.233V11.2383C54.1794 11.2383 54.1806 11.233 54.1837 11.233C54.1784 11.2327 54.1772 11.2329 54.1741 11.233ZM30.9915 14.4699C21.0314 18.8289 12.2367 26.8619 7.88911 35.9471C4.75973 42.4864 4.16479 45.582 4.15019 55.4184C4.13491 65.7173 4.71441 68.4876 8.47896 76.1404C10.563 80.377 11.7211 81.939 15.8018 86.0132C23.094 93.2936 30.2882 97.433 38.7596 99.2216C43.6789 100.26 53.418 100.302 58.1627 99.3056C75.0787 95.7524 87.621 84.018 92.3966 67.2794C93.3816 63.8266 93.5772 61.8353 93.5586 55.4184C93.5384 48.6116 93.3678 47.1559 92.1073 43.0213C89.6097 34.8291 86.1607 29.1434 80.2341 23.4514C76.5119 19.8764 72.7202 17.2386 68.3547 15.2116C67.5191 16.9251 66.7879 18.6947 66.144 20.5116C65.9853 20.9595 65.7815 21.3335 65.5531 21.6387C74.0178 26.6317 80.8177 35.2541 85.1632 45.8448C86.6225 51.2115 86.4999 60.9328 84.9083 66.0329C80.6507 79.6762 70.8336 89.7842 58.8222 92.8921C55.4363 93.7683 46.9026 94.3515 44.086 93.8998C31.5078 91.8821 19.918 83.4787 14.7916 72.6584C10.0012 62.547 10.1038 48.2816 15.0382 38.3509C18.8852 30.6086 25.2909 24.303 32.9442 20.5708C32.2739 18.5651 31.5841 16.4929 30.9915 14.4699V14.4699Z" fill="white"/>
    <path d="M50.1462 0.0405273H48.7026C47.1654 0.0405273 45.9192 1.28488 45.9192 2.81986V28.1426C45.9192 29.6776 47.1654 30.9219 48.7026 30.9219H50.1462C51.6834 30.9219 52.9296 29.6776 52.9296 28.1426V2.81986C52.9296 1.28488 51.6834 0.0405273 50.1462 0.0405273Z" fill="white" stroke="white" stroke-width="0.308064" stroke-linecap="round" stroke-linejoin="round"/>
    <path d="M274.964 93.5201C260.438 90.6389 251.838 81.9854 248.282 66.671C246.906 60.7455 246.869 46.8494 248.214 41.2479C250.616 31.2485 255.487 23.8527 262.899 18.955C266.193 16.7782 273.08 14.4972 278.624 13.7463C283.972 13.022 290.689 13.513 298.113 15.1709C301.455 15.9169 302.623 16.2666 306.125 17.5676L307.676 18.1439L307.403 28.7222C307.253 34.5403 306.962 39.6163 306.756 40.0022C306.535 40.4166 306.006 39.3531 305.463 37.4047C302.016 25.0235 294 18.6147 281.963 18.6162C265.338 18.6162 255.014 29.4997 252.904 49.2456C251.442 62.9359 255.962 76.9872 263.825 83.1936C268.676 87.0229 272.668 88.3949 280.328 88.8657C289.397 89.4233 298.514 85.9788 305.247 79.4506L307.804 76.9711V78.5313C307.804 80.1112 306.892 85.5214 306.222 87.9103C305.827 89.322 303.608 90.2755 295.96 92.3205C291.979 93.3849 278.24 94.1699 274.964 93.5201V93.5201ZM124.761 92.6911C122.837 92.4165 117.083 92.3055 111.975 92.4444C106.868 92.5832 102.689 92.4868 102.689 92.2305C102.689 91.9741 103.718 91.3095 104.977 90.7536C107.78 89.5155 110.505 86.5163 111.297 83.7994C112.549 79.4992 112.957 70.8389 112.805 51.7776L112.648 32.0002L109.463 29.1995C103.154 23.6538 98.578 20.2146 94.4944 17.9512C90.538 15.7582 89.2015 14.2685 91.2484 14.3331C91.7666 14.3494 94.5185 14.6518 97.3638 15.005L102.537 15.6473L127.278 37.9566C140.886 50.2267 158.726 66.2823 166.924 73.6356L181.828 87.0054V89.8655C181.828 91.4386 181.627 92.8496 181.381 93.0011C181.136 93.1526 179.003 91.534 176.643 89.4042C174.282 87.2744 170.311 83.7176 167.818 81.5001C165.325 79.2826 161.815 76.1378 160.019 74.5116C158.223 72.8854 154.703 69.7223 152.197 67.4825C149.692 65.2426 141.166 57.562 133.251 50.4145C125.336 43.267 118.613 37.419 118.311 37.419C117.57 37.419 117.584 75.2456 118.328 79.8179C119.281 85.6849 121.794 89.1392 126.465 91.0057C127.601 91.4595 128.53 92.1673 128.53 92.5787C128.53 92.9901 128.47 93.296 128.396 93.2585C128.322 93.2209 126.686 92.9657 124.762 92.6911H124.761ZM425.436 92.654C423.659 92.3917 417.905 92.2921 412.65 92.4326C407.214 92.5779 403.094 92.4815 403.094 92.2083C403.094 91.9444 404.002 91.3501 405.113 90.8877C407.696 89.8116 410.498 87.1215 411.495 84.7588C412.861 81.524 413.304 73.7086 413.313 52.6661L413.323 32.1644L407.89 27.4001C402.141 22.3579 396.557 18.3851 392.914 16.7448C390.686 15.7414 389.921 14.2786 391.654 14.3332C392.172 14.3495 394.944 14.6519 397.813 15.0051L403.031 15.6474L416.925 28.1047C424.567 34.9562 431.331 41.0039 431.957 41.544C432.583 42.0841 434.419 43.7356 436.037 45.214C437.655 46.6923 441.019 49.7366 443.513 51.9791C446.006 54.2215 455.739 63.0033 465.14 71.494L482.233 86.9317V89.8287C482.233 91.4221 482.051 92.8368 481.829 92.9725C481.607 93.1082 476.559 88.8285 470.612 83.4623C464.664 78.096 458.123 72.217 456.076 70.3978C454.029 68.5787 444.965 60.4178 435.934 52.2626C426.903 44.1074 419.186 37.4313 418.785 37.427C418.181 37.4206 418.1 41.0553 418.31 58.7877C418.47 72.374 418.782 80.8482 419.166 82.0563C420.462 86.1387 422.74 88.8517 426.204 90.4395C430.938 92.6092 430.655 93.4247 425.436 92.654V92.654ZM317.494 92.3582C317.494 92.0438 317.944 91.6441 318.493 91.4701C320.331 90.8875 323.388 87.2805 324.619 84.241C325.831 81.2505 325.839 81.057 325.839 53.8151C325.839 28.935 325.751 26.1459 324.883 23.6643C323.891 20.8279 321.676 18.1508 319.029 16.5894C318.185 16.0916 317.494 15.3392 317.494 14.9173C317.494 14.2954 318.131 14.2202 320.859 14.5199C322.71 14.7232 325.859 15.0346 327.858 15.212L331.492 15.5346V53.8931V92.2516L326.512 92.2576C323.773 92.263 320.624 92.4134 319.513 92.5967C318.237 92.8073 317.494 92.7197 317.494 92.3582V92.3582ZM357.199 92.3861L336.875 92.2386V53.9147V15.5907L342.124 14.9419C351.678 13.761 354.061 14.2576 349.767 16.5344C346.902 18.0537 344.582 20.5846 343.522 23.3469C342.657 25.6015 342.537 28.3877 342.366 50.3209C342.17 75.4321 342.574 83.1076 344.228 85.7006L345.021 86.9445L358.041 86.7758C371.014 86.6077 371.073 86.6016 374.291 85.1006C377.958 83.3908 380.866 80.7847 383.259 77.0651C384.163 75.6607 385.029 74.5117 385.184 74.5117C385.699 74.5117 384.826 78.4799 383.174 83.6504C382.277 86.4592 381.295 89.6645 380.992 90.7733C380.513 92.5256 380.25 92.7725 378.981 92.6614C378.179 92.5912 368.376 92.4673 357.199 92.3861V92.3861ZM247.508 83.2807C243.15 80.0312 239.091 73.3495 236.955 65.9105C236.168 63.1679 235.959 60.6816 235.984 54.3527C236.013 46.7658 236.115 45.9949 237.708 41.3143C238.64 38.5783 240.215 35.0706 241.21 33.5195C242.981 30.7568 246.838 26.8947 247.332 27.3887C247.47 27.5261 247.112 28.5692 246.537 29.7066C242.731 37.2379 241.294 45.7045 241.763 57.8469C242.217 69.5823 243.856 75.3835 249.017 83.516C249.982 85.0367 249.831 85.013 247.508 83.2807V83.2807ZM179.674 77.1221C178.244 75.9356 176.691 74.5455 158.973 58.5943C152.77 53.009 145.256 46.2622 142.276 43.6012C125.671 28.7723 111.302 15.7788 111.302 15.5921C111.302 15.4746 112.818 15.3786 114.671 15.3786C118.591 15.3786 117.156 14.32 134.721 30.1662C168.876 60.9788 175.664 66.9856 176.332 66.9856C177.008 66.9856 177.078 64.3179 176.846 47.4986C176.549 26.0868 176.366 24.7287 173.248 20.7977C171.629 18.7562 166.774 15.9161 164.903 15.9161C164.44 15.9161 164.062 15.5178 164.062 15.0309C164.062 14.2451 164.53 14.1979 168.234 14.6112C173.491 15.1978 184.201 15.2393 188.961 14.6916C191.919 14.3512 192.595 14.4137 192.595 15.0276C192.595 15.4424 191.869 15.9266 190.983 16.1037C188.731 16.5534 183.722 21.5643 182.841 24.2485C182.309 25.869 182.092 32.7893 181.962 52.3368C181.866 66.6026 181.615 78.2666 181.404 78.2568C181.193 78.2471 180.414 77.7363 179.674 77.1221V77.1221ZM470.927 68.7897C465.153 63.6019 459.581 58.588 458.545 57.6478C457.509 56.7076 453.027 52.699 448.585 48.7399C438.369 39.633 438.006 39.3085 423.606 26.3988L411.614 15.6473L415.17 15.4882L418.725 15.329L431.771 27.0242C438.946 33.4566 444.938 38.8502 445.086 39.01C445.234 39.1698 447.777 41.4778 450.737 44.1388C453.697 46.7997 457.089 49.8528 458.274 50.9234C459.459 51.9941 463.942 56.041 468.235 59.9168C472.529 63.7925 476.369 66.9685 476.769 66.9746C477.37 66.9838 477.463 63.5071 477.307 46.9225L477.118 26.8593L475.498 23.6955C473.625 20.0398 470.363 17.2679 466.821 16.3218C465.423 15.9485 464.467 15.3789 464.467 14.9194C464.467 14.2726 465.151 14.2221 468.639 14.6118C473.934 15.2034 485.25 15.2401 489.635 14.6799C492.312 14.3379 493 14.3982 493 14.9751C493 15.3739 492.213 15.9852 491.25 16.3335C488.705 17.2548 485.592 20.0065 484.355 22.4289C482.602 25.8601 482.267 31.0846 482.249 55.2934C482.24 67.9331 482.051 78.2628 481.829 78.2483C481.607 78.2338 476.701 73.9774 470.927 68.7897V68.7897Z" fill="white"/>
    </g>
    <defs>
    <linearGradient id="paint0_linear_936_1140" x1="50.7528" y1="105.553" x2="49.0206" y2="15.1761" gradientUnits="userSpaceOnUse">
    <stop stop-color="#20577D"/>
    <stop offset="1" stop-color="#20577D" stop-opacity="0"/>
    </linearGradient>
    <clipPath id="clip0_936_1140">
    <rect width="493" height="104" fill="white"/>
    </clipPath>
    </defs>
    </svg>
    