<?xml version="1.0" encoding="UTF-8" standalone="no"?>
<!-- Created with Inkscape (http://www.inkscape.org/) -->

<svg
   version="1.1"
   id="svg9"
   width="2119.4365"
   height="500.28168"
   viewBox="0 0 2119.4365 500.28168"
   sodipodi:docname="logo-cln.svg"
   inkscape:version="1.1.2 (b8e25be833, 2022-02-05)"
   xmlns:inkscape="http://www.inkscape.org/namespaces/inkscape"
   xmlns:sodipodi="http://sodipodi.sourceforge.net/DTD/sodipodi-0.dtd"
   xmlns:xlink="http://www.w3.org/1999/xlink"
   xmlns="http://www.w3.org/2000/svg"
   xmlns:svg="http://www.w3.org/2000/svg">
  <defs
     id="defs13">
    <linearGradient
       inkscape:collect="always"
       id="linearGradient30995">
      <stop
         style="stop-color:#20577d;stop-opacity:1;"
         offset="0"
         id="stop30991" />
      <stop
         style="stop-color:#20577d;stop-opacity:0;"
         offset="1"
         id="stop30993" />
    </linearGradient>
    <linearGradient
       inkscape:collect="always"
       xlink:href="#linearGradient30995"
       id="linearGradient30989"
       x1="-186.65091"
       y1="164.05743"
       x2="-186.83188"
       y2="158.02528"
       gradientUnits="userSpaceOnUse" />
  </defs>
  <sodipodi:namedview
     id="namedview11"
     pagecolor="#ffffff"
     bordercolor="#666666"
     borderopacity="1.0"
     inkscape:pageshadow="2"
     inkscape:pageopacity="0.0"
     inkscape:pagecheckerboard="0"
     showgrid="false"
     inkscape:zoom="0.3256225"
     inkscape:cx="847.60728"
     inkscape:cy="425.33916"
     inkscape:window-width="1920"
     inkscape:window-height="986"
     inkscape:window-x="-11"
     inkscape:window-y="-11"
     inkscape:window-maximized="1"
     inkscape:current-layer="g15" />
  <g
     inkscape:groupmode="layer"
     inkscape:label="Image"
     id="g15">
    <path
       style="fill:#20577d;fill-opacity:1;stroke-width:3.38028"
       d="M 176.24566,482.54264 C 88.744416,451.47349 32.216278,383.84906 20.566174,296.30378 11.809401,230.50058 35.103796,163.18904 83.562066,114.27072 103.8992,93.740513 135.3287,72.246953 157.1202,63.966843 c 18.71921,-7.11274 25.88603,-6.0459 25.88603,3.85338 0,4.96325 -7.21506,10.44005 -27.88733,21.16869 -39.20391,20.346337 -74.871244,55.930287 -92.040784,91.825637 -17.09807,35.74595 -21.95602,55.84824 -22.0036,91.05148 -0.10202,75.48806 45.56509,143.83708 120.663204,180.5941 l 33.09949,16.20067 h 50.70422 c 56.59662,0 66.44475,-2.36254 106.63281,-25.58106 60.23016,-34.7978 101.37451,-105.22823 101.17186,-173.18498 -0.10513,-35.25711 -3.84413,-51.09202 -20.41244,-86.44785 -10.82849,-23.10744 -18.34384,-33.40745 -39.54182,-54.19319 -14.39476,-14.11483 -34.53576,-30.061687 -44.75782,-35.437457 -10.22205,-5.37577 -23.67021,-13.54664 -29.8848,-18.15749 -10.05372,-7.45927 -10.73921,-8.9434 -6.21875,-13.46386 4.52047,-4.52047 6.85871,-4.47459 21.21237,0.41619 43.71016,14.89355 96.45036,63.902187 119.22717,110.791477 17.46588,35.95591 20.93493,52.30081 20.95575,98.73568 0.0304,64.53312 -16.98098,103.92311 -65.92262,152.6571 -24.59283,24.48849 -36.54396,33.48375 -60.62911,45.6338 l -29.99837,15.13305 -64.64951,0.59064 c -44.31278,0.40482 -68.37116,-0.73082 -76.48049,-3.61021 z m 314.36618,-33.31846 c 0,-1.39436 2.51723,-2.53521 5.59383,-2.53521 3.07659,0 11.18582,-5.87844 18.02052,-13.0632 17.73386,-18.64215 20.32931,-39.13903 20.32931,-160.54516 V 173.45059 L 508.35832,149.2357 c -14.40845,-13.31819 -35.72954,-30.40577 -47.38022,-37.9724 -11.65068,-7.56663 -20.77403,-14.166547 -20.27409,-14.666487 0.49995,-0.49994 11.75318,0.10854 25.00719,1.35216 l 24.0982,2.261127 129.27241,126.76057 c 71.09982,69.7183 145.91161,142.9373 166.24839,162.70887 36.22013,35.21341 36.95439,36.22868 35.91756,49.66219 l -1.05847,13.71387 -62.79228,-61.49317 C 722.86128,357.74119 663.53734,299.69202 625.56603,262.56429 l -69.0387,-67.50496 -0.90456,94.54721 c -0.56752,59.3183 0.48216,101.23548 2.81709,112.49712 4.37601,21.10591 18.97281,39.68681 33.7221,42.9263 21.45366,4.71202 7.7306,6.72944 -45.77547,6.72944 -30.67606,0 -55.77465,-1.14085 -55.77465,-2.53522 z M 199.90763,381.40742 c 0,-2.89535 1.56772,-9.38765 3.48381,-14.42735 3.4884,-9.1752 77.63432,-109.32682 86.20421,-116.43919 2.50307,-2.07736 8.29103,-3.28683 12.86212,-2.68771 7.84625,1.0284 6.58161,3.38531 -22.61249,42.14279 -17.00796,22.5794 -39.02172,52.76294 -48.91946,67.07451 -9.89774,14.31161 -18.88454,25.13243 -19.97067,24.04631 -1.08613,-1.08615 -4.01615,-0.28056 -6.51115,1.79006 -3.4647,2.87544 -4.53637,2.52122 -4.53637,-1.49942 z m 534.1678,-78.67696 C 686.71279,256.41469 620.54378,191.56025 587.03319,158.6095 l -60.92839,-59.910467 14.76118,-0.0895 14.76118,-0.0895 120.85237,118.309857 c 66.46881,65.07042 121.81219,118.30986 122.98529,118.30986 3.64215,0 2.34321,-179.95215 -1.39613,-193.41615 -4.60147,-16.5684 -16.96401,-30.82094 -33.47367,-38.5912 L 751.2039,96.829893 h 58.32898 58.32899 l -14.75892,9.359837 c -10.25171,6.50145 -16.99842,14.24371 -22.09213,25.35212 -6.96267,15.18422 -7.42134,22.04056 -9.07737,135.69572 l -1.74416,119.70347 z M 107.0169,352.14949 c -1.2474,-2.01833 13.1279,-3.63715 37.52134,-4.22535 l 39.54347,-0.95348 7.86458,-23.33189 c 4.32551,-12.83254 8.46742,-23.93474 9.20423,-24.67155 0.73681,-0.73682 5.04378,-0.40999 9.57105,0.72628 l 8.23139,2.06595 -8.49502,26.83097 -8.49501,26.83095 h -46.46196 c -26.30194,0 -47.33935,-1.41969 -48.48407,-3.27188 z m 136.83439,-0.1084 c 0,-1.85916 0.38029,-3.4267 0.84507,-3.48342 0.46479,-0.0568 22.14085,-0.90649 48.16902,-1.88833 26.02816,-0.98187 49.22534,-2.40882 51.54929,-3.17104 2.63678,-0.86484 4.22535,-7.78002 4.22535,-18.39339 v -17.00749 h 16.90141 16.9014 v -35.49295 -35.49296 h 8.45071 8.4507 v 38.87324 38.87324 h -16.90141 -16.9014 v 16.98507 c 0,15.12206 -0.95104,17.34666 -8.67076,20.28169 -11.66199,4.43388 -113.01938,4.35884 -113.01938,-0.0837 z M 118.81151,285.28052 c 0.0169,-1.39436 14.59074,-21.92957 32.38641,-45.6338 28.68848,-38.21369 33.4896,-43.09859 42.35943,-43.09859 h 10.00366 l -15.39275,21.12676 c -8.46601,11.61972 -22.59788,32.0734 -31.40415,45.45262 -14.31829,21.75354 -17.1731,24.34502 -26.99732,24.50704 -6.04225,0.0996 -10.97213,-0.95966 -10.95528,-2.35403 z m 32.08204,-4.22535 c 1.17692,-1.90429 17.49989,-3.38028 37.38259,-3.38028 21.27546,0 35.29346,1.34259 35.29346,3.38028 0,2.04975 -14.71438,3.38028 -37.38259,3.38028 -24.06095,0 -36.63811,-1.20459 -35.29346,-3.38028 z m 62.65065,-46.25435 c 0.60191,-14.38867 14.11005,-57.36081 19.82887,-63.07962 4.3309,-4.33091 7.09794,-5.40959 7.09794,-2.767 0,2.38202 1.49822,3.405 3.32938,2.27328 3.66355,-2.2642 2.20575,6.99267 -6.64923,42.22206 -4.94777,19.68459 -6.46995,22.08317 -14.62253,23.04142 -5.00493,0.58829 -9.04792,-0.17229 -8.98443,-1.69014 z m 23.54653,-4.44987 c 0,-2.08096 16.9679,-3.38028 44.14315,-3.38028 28.568,0 43.40604,1.19267 42.05403,3.38028 -1.21162,1.96043 -19.75341,3.38028 -44.14315,3.38028 -25.7825,0 -42.05403,-1.3079 -42.05403,-3.38028 z m 111.54929,-16.66631 c 0,-7.56592 1.52113,-13.75623 3.38028,-13.75623 1.85916,0 3.38028,1.47339 3.38028,3.27419 0,1.80081 2.39341,2.35576 5.31867,1.23323 4.3057,-1.65225 5.11045,0.13836 4.22535,9.40187 -0.84868,8.88262 -2.79498,11.6845 -8.69895,12.523 -6.81833,0.96835 -7.60563,-0.34381 -7.60563,-12.67606 z M 240.03984,150.40391 c -3.52878,-4.245 -4.88832,-22.61313 -5.6798,-76.737547 -0.57229,-39.1362 1.42774,-74.55104265 0.90948,-78.92621 -1.36312,-11.507431 22.00859,-11.177344 22.00859,-11.177344 l 9.61699,1.31732 4.09442,4.201885 -0.096,78.339359 c -0.0711,58.065687 -1.12866,81.579357 -4.05634,84.507037 -5.86385,5.86385 -21.38982,4.98058 -26.79737,-1.5245 z"
       id="path1191"
       sodipodi:nodetypes="ssssssssscsssssssssscsscsssssscsssscssscsscsssssssssssssssscccsssscccssscssscssscccssssssscccccccccccssssssscssssssssssssssssssssssssssssssscccsss"
       inkscape:export-filename="C:\Users\beatriz.do.ferreira\Pictures\logoOn.png"
       inkscape:export-xdpi="96"
       inkscape:export-ydpi="96" />
    <text
       xml:space="preserve"
       style="font-style:normal;font-variant:normal;font-weight:normal;font-stretch:normal;font-size:12.0615px;line-height:0.143188px;font-family:monospace;-inkscape-font-specification:monospace;white-space:pre;inline-size:93.8069;fill:url(#linearGradient30989);fill-opacity:1;stroke:none"
       x="-190.40453"
       y="164.30069"
       id="text13601"
       transform="matrix(76.368573,0,0,62.366166,14512.231,-9760.2289)"
       inkscape:export-filename="C:\Users\beatriz.do.ferreira\Pictures\logoOn.png"
       inkscape:export-xdpi="96"
       inkscape:export-ydpi="96"><tspan
         x="-190.40453"
         y="164.30069"
         id="tspan32925">O</tspan></text>
    <ellipse
       style="fill:#20577d;fill-opacity:0;stroke:#000000;stroke-width:0.88879;stroke-opacity:1"
       id="path31563"
       cx="450.77081"
       cy="271.78711"
       rx="463.20312"
       ry="337.29044" />
  </g>
</svg>
